# xmcd CD database file
#
# Track frame offsets:
#	150
#	13747
#	27228
#	38242
#	49601
#	60667
#	70563
#	91025
#	104760
#	115621
#	125764
#	141847
#	153829
#
# Disc length: 2206 seconds
#
# Revision: 0
# Processed by: cddbd v1.4PL0 Copyright (c) Steve Scherf et al.
# Submitted via: CDex 1.40Beta9
#
DISCID=a6089c0d
DTITLE=Take It Easy - Silbermond
DYEAR=1999
DGENRE=Country
TTITLE0=Silbermond
TTITLE1=Egal
TTITLE2=Heut Nacht
TTITLE3=Das ist sicher fürchterlich
TTITLE4=Robinson (ohne Telefon)
TTITLE5=Bye, bye
TTITLE6=Grandpa (ich denk oft an dich)
TTITLE7=Komm in's Märchenland
TTITLE8=Ohrwurm
TTITLE9=Bier, Bier, Bier
TTITLE10=Heute räum ich auf
TTITLE11=Bis morgen
TTITLE12=Bis morgen (Finale)
EXTD=YEAR: 1999 ID3G: 2
EXTT0=
EXTT1=
EXTT2=
EXTT3=
EXTT4=
EXTT5=
EXTT6=
EXTT7=
EXTT8=
EXTT9=
EXTT10=
EXTT11=
EXTT12=
PLAYORDER=
